<?xml version="1.0" encoding="utf-8"?>
<!-- Generator: Adobe Illustrator 19.2.1, SVG Export Plug-In . SVG Version: 6.00 Build 0)  -->
<svg version="1.1" id="layer" xmlns="http://www.w3.org/2000/svg" xmlns:xlink="http://www.w3.org/1999/xlink" x="0px" y="0px"
	 viewBox="0 0 652 652" style="enable-background:new 0 0 652 652;" xml:space="preserve">
<style type="text/css">
	.st0{fill:white;}
</style>
<path class="st0" d="M130.3,255.8c-17.1,0-34.1,6.7-45.7,18.9c-12.2,12.2-19.5,28.6-18.9,45.7c-0.6,17.1,6.7,33.5,18.9,45.7
	s28.6,19.5,45.7,18.9c17.1,0,33.5-6.7,45.7-18.9s19.5-28.6,18.9-45.7c0-17.1-6.7-34.1-18.9-45.7C164.4,262.5,148,255.8,130.3,255.8z
	 M171.7,362.4c-11,11-25.6,17.1-41.4,17.1c-15.8,0.6-30.5-6.1-41.4-17.1c-11.6-11-17.7-25.6-17.1-41.4c-0.6-15.8,6.1-30.5,17.1-41.4
	c11-11.6,25.6-17.7,41.4-17.1c15.8,0,30.5,6.1,41.4,17.1s17.1,25.6,17.1,41.4C189.4,336.8,183.3,351.5,171.7,362.4z M130.3,269.2
	c-14,0-27.4,5.5-37.2,15.2c-9.7,9.7-15.2,23.1-15.2,37.2c0,14,5.5,27.4,15.2,36.5c9.7,9.7,23.1,15.2,37.2,15.2
	c14,0,27.4-5.5,36.5-15.2c9.7-9.7,15.2-23.1,15.2-36.5c0-14-5.5-27.4-15.2-37.2C157.7,274.7,144.3,268.6,130.3,269.2z M176,323.4
	c0,12.2-5.5,23.8-14.6,31.7c-9.1,8.5-20.7,12.8-32.9,11.6c-25-1.2-44.5-21.9-43.2-47.5v-0.6c0.6-12.2,6.1-23.8,15.2-31.7
	c9.1-8.5,20.7-12.8,32.9-11.6c12.2,0.6,23.1,6.1,31.1,15.2S176.6,311.3,176,323.4z M202.2,291.2c-4.3-9.1-9.7-17.7-16.4-25
	c-7.3-7.3-15.2-12.8-25-16.4c-9.7-4.3-20.1-6.1-30.5-6.1s-20.7,1.8-30.5,6.1c-9.1,3.7-17.7,9.1-24.4,16.4
	c-7.3,7.3-12.8,15.2-16.4,25c-4.3,9.7-6.1,20.1-6.1,30.5c0,10.4,1.8,20.7,6.1,30.5c12.2,28.6,40.2,47.5,71.3,47.5
	c10.4,0,20.7-1.8,30.5-6.1c9.1-3.7,17.7-9.7,25-16.4c7.3-7.3,12.8-15.2,16.4-24.4c4.3-9.7,6.1-19.5,6.1-30.5
	C208.3,310.6,206.4,300.3,202.2,291.2z M196.1,349c-3.7,8.5-8.5,15.8-15.2,22.5c-6.7,6.7-14,11.6-22.5,15.2
	c-17.7,7.3-37.8,7.3-55.4,0c-8.5-3.7-16.4-8.5-23.1-15.2c-6.7-6.7-11.6-14-15.2-22.5c-7.3-17.7-7.3-37.8,0-55.4
	c3.7-8.5,8.5-15.8,15.2-22.5c6.7-6.7,14-11.6,22.5-15.2c8.5-3.7,18.3-5.5,27.4-5.5c9.7,0,18.9,1.8,27.4,5.5
	c8.5,3.7,16.4,8.5,23.1,15.2c6.7,6.7,11.6,14,15.2,22.5C204,311.3,204,331.4,196.1,349z"/>
<path class="st0" d="M97.4,338.7c1.2,1.8,2.4,4.3,3.7,6.1v-47.5c-5.5,6.7-8.5,15.2-8.5,23.8C92.5,327.1,94.3,333.2,97.4,338.7z
	 M109.6,352.7c2.4,1.8,5.5,3,8.5,4.3v-71.9c-3,1.2-6.1,2.4-8.5,4.3C109.6,289.3,109.6,352.7,109.6,352.7z M126.6,283.2v75.5h8.5
	v-75.5C135.2,283.2,126.6,283.2,126.6,283.2z M143.7,356.9c3-1.2,5.5-2.4,8.5-4.3v-63.4c-2.4-1.8-5.5-3-8.5-4.3
	C143.7,285.1,143.7,356.9,143.7,356.9z M160.1,297.9v47.5l3.7-5.5c3-5.5,4.3-11.6,4.3-17.7C168.7,312.5,165.6,303.9,160.1,297.9z
	 M113.2,212.6c-3.7,0.6-7.3,1.2-11,2.4l6.1,22.5l9.1-1.8C117.5,235.7,113.2,212.6,113.2,212.6z M58.4,274.1l-19.5-12.8
	c-2.4,3-4.3,6.7-6.1,9.7l20.7,10.4C55.4,279,56.6,276.5,58.4,274.1 M91.3,218.7c-3.7,1.2-6.7,3-10.4,4.9l10.4,20.7
	c3-1.8,5.5-2.4,8.5-3.7L91.3,218.7z M83.4,248.5L71.2,229c-3.7,2.4-6.7,4.3-9.7,6.7L76.1,254L83.4,248.5 M69.4,260.1l-16.4-16.4
	c-2.4,2.4-4.9,5.5-7.3,8.5l18.3,14.6C65.7,264.4,67.5,261.9,69.4,260.1 M184.5,254l14.6-17.7L190,229l-12.8,19.5
	C180.2,250.3,182.7,252.2,184.5,254 M180.2,223.5c-3.7-1.8-6.7-3-10.4-4.9l-8.5,21.9c3,1.2,6.1,2.4,8.5,3.7
	C169.9,244.2,180.2,223.5,180.2,223.5z M197.9,266.8l17.7-14.6c-2.4-3-4.9-5.5-7.9-8.5l-16.4,16.4L197.9,266.8 M207,282l20.7-10.4
	c-1.8-3.7-3.7-6.7-6.1-9.7l-19.5,12.8C204,276.5,205.2,279,207,282 M213.1,298.5l22.5-6.1l-3.7-11l-21.9,8.5
	C211.3,293,212.5,296,213.1,298.5 M158.9,215c-3.7-1.2-7.3-1.8-11-2.4l-3.7,23.1l9.1,1.8C153.4,237.5,158.9,215,158.9,215z
	 M136.4,211.4h-11.6l1.2,23.8h9.1C135.2,235.1,136.4,211.4,136.4,211.4z M47.4,343.5l-22.5,6.1l3.7,11l21.9-8.5
	C49.3,349,48.1,346,47.4,343.5 M215.6,334.4l23.1,3.7c0.6-3.7,1.2-7.9,1.2-11.6l-23.8-1.2C216.2,328.3,216.2,331.4,215.6,334.4
	 M210.7,352.1l21.9,8.5l3.7-11l-22.5-6.1C213.1,346,211.9,349,210.7,352.1 M238.7,303.9l-23.1,3.7c0.6,3,0.6,6.1,1.2,9.1l23.1-1.2
	C239.3,311.3,239.3,307.6,238.7,303.9 M202.8,367.9l19.5,12.8c2.4-3,4.3-6.7,6.1-9.7l-20.7-10.4C206.4,363,204.6,365.5,202.8,367.9
	 M191.8,381.9l16.4,16.4c2.4-2.4,5.5-5.5,7.9-8.5l-18.3-14.6C195.5,377.6,193.6,380.1,191.8,381.9 M177.8,393.5l12.8,19.5
	c3-1.8,6.1-4.3,9.1-6.7L185.1,388L177.8,393.5 M49.9,289.9L28,281.4l-3.7,11l22.5,6.1C48.1,295.4,49.3,293,49.9,289.9 M63.3,375.2
	L45,389.8c2.4,3,4.9,6.1,7.9,8.5L70,381.9L63.3,375.2 M53.5,360l-20.7,10.4c1.8,3.7,3.7,6.7,6.1,9.7l19.5-12.8
	C57.2,365.5,55.4,363,53.5,360 M44.4,325.3l-23.1,1.8c0,3.7,0.6,7.3,1.2,11l23.1-3.7C45,331.4,44.4,328.3,44.4,325.3 M76.1,388
	l-14.6,18.3c3,2.4,6.1,4.9,9.1,6.7l12.8-19.5L76.1,388 M45.6,307.6l-23.1-3.7c-0.6,3.7-1.2,7.3-1.2,11.6l23.1,1.2
	C44.4,313.7,45,310.6,45.6,307.6 M161.4,401.4l8.5,21.9c3.7-1.2,7.3-3,10.4-4.9l-10.4-20.7C166.8,399,164.4,400.2,161.4,401.4
	 M80.9,418.5c3.7,1.8,6.7,3,10.4,4.9l8.5-21.9c-3-1.2-5.5-2.4-7.9-3.7L80.9,418.5z M124.8,430.6h11.6l-1.2-23.8H126L124.8,430.6z
	 M144.3,406.3l3.7,23.1c3.7-0.6,7.3-1.2,11-2.4l-6.1-22.5C149.8,405.1,147.3,405.7,144.3,406.3 M102.3,427c3.7,1.2,7.3,1.8,11,2.4
	l3.7-23.1c-3-0.6-6.1-1.2-8.5-1.8C108.4,404.5,102.3,427,102.3,427z"/>
<g>
	<path class="st0" d="M283.8,376.4V268h43.9c19.5,0.6,34.7,16.4,34.7,35.9c0.6,19.5-14.6,35.3-34.1,35.9h-23.8v36.5H283.8z
		 M305.1,321.6h22.5c7.9,0,13.4-6.7,13.4-17.7c0-11-7.3-17.7-14.6-17.7h-21.3C305.1,286.3,305.1,321.6,305.1,321.6z M422.7,313.1
		c-11.6,0-21.9,6.1-27.4,16.4V377h-20.7v-81h18.9v17.1c6.1-11,16.4-18.3,25-18.3h4.3C422.7,294.8,422.7,313.1,422.7,313.1z
		 M428.2,336.8c-0.6-22.5,17.1-41.4,39.6-42h3c26.2,0,40.2,18.9,40.2,40.8c0,2.4,0,4.9-0.6,7.3h-59.7c0.6,11.6,9.7,20.1,21.3,20.1
		c8.5,0,16.4-4.9,20.1-12.8l17.1,6.7c-7.3,13.4-21.9,21.9-37.2,20.7C443.4,378.3,428.2,359.4,428.2,336.8z M491.5,330.1
		c-0.6-11-9.7-20.1-20.7-20.1c-11,0-20.1,8.5-20.7,20.1H491.5z M598.1,274.7c0-6.1,4.9-11.6,11.6-11.6c6.1,0,11.6,4.9,11.6,11.6
		c0,6.1-4.9,11.6-11.6,11.6S598.1,281.4,598.1,274.7z M599.3,376.4V296H620v80.4C620,376.4,599.3,376.4,599.3,376.4z M513.4,376.4
		l41.4-63.4h-37.2V296h67.6l-41.4,64h42v16.4H513.4z"/>
</g>
</svg>
