<?xml version="1.0" standalone="no"?>
<!DOCTYPE svg PUBLIC "-//W3C//DTD SVG 20010904//EN"
 "http://www.w3.org/TR/2001/REC-SVG-20010904/DTD/svg10.dtd">
<svg version="1.0" xmlns="http://www.w3.org/2000/svg"
 width="400.000000pt" height="400.000000pt" viewBox="0 0 400.000000 400.000000"
 preserveAspectRatio="xMidYMid meet">
<metadata>
Created by potrace 1.14, written by Peter Selinger 2001-2017
</metadata>
<g transform="translate(0.000000,400.000000) scale(0.100000,-0.100000)"
fill="#000000" stroke="none">
<path d="M0 2988 c0 -556 2 -1009 4 -1007 2 2 102 274 222 604 232 637 236
645 315 686 81 41 69 44 1021 -301 517 -188 899 -332 922 -348 53 -36 86 -101
86 -166 0 -42 -75 -258 -436 -1249 -239 -659 -433 -1201 -430 -1204 3 -3 11
-3 18 0 7 2 170 436 362 963 192 528 367 1007 388 1065 l39 105 471 -83 c344
-61 480 -89 504 -103 38 -24 64 -74 64 -123 0 -19 -70 -431 -155 -914 -85
-483 -155 -886 -155 -896 0 -10 5 -17 12 -15 7 3 26 82 45 194 75 425 215
1210 220 1231 3 13 9 21 13 18 5 -3 12 0 16 6 4 8 3 9 -5 5 -9 -6 -11 3 -10
32 2 33 7 41 26 45 12 2 20 0 17 -4 -19 -32 -10 -55 20 -50 5 1 6 -6 2 -16 -6
-17 -5 -17 8 0 8 10 16 14 19 10 7 -11 -4 -28 -23 -37 -8 -3 -5 -4 8 -2 12 2
22 0 22 -5 0 -4 13 -7 30 -6 32 2 33 2 20 32 -5 11 -9 14 -9 7 -1 -18 -41 4
-41 23 0 20 10 19 27 -3 8 -10 11 -11 7 -2 -7 13 -5 13 9 2 9 -8 21 -11 27 -7
5 3 10 1 10 -4 0 -6 8 -11 18 -12 12 0 11 -3 -7 -10 -14 -5 -21 -15 -18 -23 4
-10 0 -13 -14 -11 -13 3 -19 0 -16 -8 3 -7 11 -11 18 -9 8 2 10 0 6 -4 -11
-12 -37 -14 -37 -3 0 5 -5 9 -11 9 -6 0 -9 -6 -6 -12 2 -7 12 -13 22 -13 10 0
21 -9 25 -20 6 -16 8 -14 13 13 6 29 27 46 27 21 0 -5 5 -7 10 -4 17 11 32 -5
20 -20 -6 -8 -10 -22 -8 -32 1 -10 -1 -25 -6 -33 -5 -8 -6 -12 -1 -8 4 4 14 3
21 -3 8 -7 14 -6 20 2 4 8 3 9 -5 5 -8 -5 -11 2 -9 23 1 16 5 28 9 25 4 -2 9
1 12 8 2 7 3 5 2 -4 -2 -10 3 -18 10 -18 18 0 28 17 15 25 -5 3 -10 12 -10 18
0 7 6 3 12 -8 7 -11 10 -20 7 -21 -2 0 1 -7 8 -15 9 -11 8 -18 -2 -32 -13 -18
-14 -17 -20 2 -3 12 -14 21 -23 21 -10 0 -13 -3 -7 -8 22 -16 33 -48 23 -66
-5 -10 -7 -20 -4 -23 3 -3 9 3 13 13 4 10 13 24 20 29 7 6 15 30 18 54 5 46
19 71 39 71 6 0 3 -7 -7 -14 -19 -15 -30 -86 -13 -86 6 0 5 -4 -3 -9 -14 -9
-7 -51 9 -51 9 0 22 28 24 52 1 10 4 18 9 18 29 0 29 0 18 -14 -16 -19 -4 -46
17 -39 9 4 14 3 10 -2 -4 -4 -20 -9 -35 -10 -22 -1 -27 -6 -25 -21 2 -16 1
-16 -7 -4 -9 13 -11 13 -11 -2 0 -16 11 -23 33 -19 14 2 7 -22 -10 -36 -10 -8
-12 -11 -4 -7 7 3 17 0 22 -7 7 -11 9 -9 9 6 0 17 2 17 10 5 5 -8 10 -10 10
-4 0 5 -5 15 -11 21 -15 15 -2 34 18 26 12 -5 14 -3 8 8 -4 8 -5 11 0 7 4 -4
14 0 21 10 11 14 13 276 14 1400 l0 1382 -2000 0 -2000 0 0 -1012z m2645 -538
c3 -5 -1 -10 -10 -10 -9 0 -13 5 -10 10 3 6 8 10 10 10 2 0 7 -4 10 -10z m42
-55 c5 -4 2 -5 -4 -1 -8 4 -13 1 -13 -9 0 -9 4 -14 9 -11 13 8 34 -21 27 -39
-6 -17 -36 -21 -36 -5 0 6 7 13 15 16 8 4 13 10 10 15 -3 4 -11 6 -18 4 -7 -3
-17 5 -23 18 -9 20 -8 23 8 22 9 -1 21 -5 25 -10z m63 -41 c15 -12 20 -14 39
-14 5 0 8 -12 5 -26 -3 -16 -1 -23 6 -19 5 3 10 1 10 -5 0 -6 5 -8 12 -4 7 4
8 3 4 -5 -4 -6 -12 -8 -18 -5 -7 5 -8 2 -4 -5 5 -7 14 -10 21 -7 10 3 12 -3
10 -22 -2 -15 -4 -34 -4 -42 -1 -11 -3 -12 -9 -3 -10 15 -27 3 -28 -20 -1 -12
2 -15 10 -9 6 5 21 13 33 16 17 5 21 3 18 -11 -4 -28 3 -33 32 -18 27 14 56 9
32 -6 -11 -6 -10 -9 3 -14 9 -4 15 -14 14 -23 -2 -9 -7 -15 -12 -13 -5 2 -14
6 -21 8 -6 3 -9 11 -6 19 3 8 0 14 -6 14 -6 0 -10 -6 -8 -12 1 -9 -11 -13 -35
-14 -21 -1 -38 2 -38 5 0 3 -16 7 -35 8 -80 4 -84 5 -78 21 4 10 2 13 -5 8
-11 -6 -18 19 -13 47 2 11 -9 8 -26 -8 -8 -8 -19 -12 -25 -9 -7 4 -8 2 -4 -4
4 -7 2 -12 -5 -12 -7 0 -10 -3 -7 -6 4 -3 18 2 32 11 26 17 26 17 25 -11 -1
-17 -3 -22 -6 -11 -2 9 -9 15 -14 11 -5 -3 -6 -10 -3 -16 5 -7 2 -9 -8 -6 -9
4 -36 10 -62 13 -29 5 -46 12 -46 21 0 8 7 14 15 14 23 0 30 -4 27 -14 -2 -5
5 -3 14 5 16 13 16 14 1 17 -10 2 -17 8 -17 13 0 6 5 7 10 4 6 -3 10 -2 10 3
0 21 -28 20 -34 -1 -3 -12 -7 -19 -10 -16 -3 3 -3 15 0 26 5 16 13 21 32 20
18 -1 28 4 30 16 2 12 -3 17 -17 17 -12 0 -21 4 -21 9 0 6 9 8 20 6 11 -2 20
0 20 6 0 5 10 9 21 9 20 0 21 -1 5 -25 -19 -29 -20 -39 -5 -29 7 4 10 1 7 -7
-3 -8 -11 -13 -17 -11 -6 1 -11 -2 -11 -7 0 -5 10 -9 23 -8 12 0 38 -3 57 -7
32 -7 36 -5 37 14 2 30 11 36 26 20 10 -10 9 -11 -2 -5 -10 6 -12 4 -7 -4 5
-7 15 -10 25 -7 9 4 5 -2 -8 -12 -18 -15 -21 -21 -11 -27 9 -5 11 -4 6 3 -7
11 4 16 30 13 10 -1 10 21 0 84 -3 17 -5 33 -5 37 -1 4 -13 3 -27 -2 -33 -13
-44 -12 -21 1 9 6 15 15 12 20 -4 5 -10 7 -15 4 -4 -3 -11 2 -14 11 -6 16 6
12 34 -12z m111 9 c7 -10 10 -15 5 -11 -5 4 -16 3 -25 -1 -11 -6 -23 -4 -36 5
-15 12 -16 14 -3 14 9 0 18 -6 21 -12 3 -9 7 -7 12 5 4 9 8 17 10 17 1 0 9 -8
16 -17z m-229 -33 c5 0 7 7 4 16 -5 14 -4 15 9 4 19 -16 10 -30 -19 -28 -18 2
-22 7 -17 23 4 17 6 18 9 3 2 -10 8 -18 14 -18z m328 6 c0 -2 -8 -10 -17 -17
-16 -13 -17 -12 -4 4 13 16 21 21 21 13z m-108 -17 c2 -2 1 -3 -1 -2 -2 2 -9
-2 -16 -7 -8 -7 -12 -5 -12 4 0 12 22 16 29 5z m-125 -30 c-22 -17 -25 -24
-16 -35 18 -21 1 -17 -24 7 -20 19 -20 20 -3 17 10 -1 21 3 24 11 3 9 0 11 -8
6 -9 -5 -11 -4 -6 3 4 7 19 12 34 12 l27 -1 -28 -20z m43 -8 c0 -14 -5 -18
-20 -14 -11 3 -17 9 -14 14 3 5 10 7 15 4 5 -4 9 -1 9 4 0 6 2 11 5 11 3 0 5
-9 5 -19z m127 2 c0 -7 -4 -13 -8 -13 -4 0 -9 6 -12 13 -3 8 0 14 7 14 7 0 13
-6 13 -14z m53 13 c0 -11 -19 -15 -25 -6 -3 5 1 10 9 10 9 0 16 -2 16 -4z m70
-32 c0 -8 -5 -12 -10 -9 -6 4 -8 11 -5 16 9 14 15 11 15 -7z m-349 -21 c13
-16 12 -17 -3 -4 -17 13 -22 21 -14 21 2 0 10 -8 17 -17z m319 -25 c20 -26 17
-38 -9 -38 -13 0 -18 8 -18 30 0 36 3 37 27 8z m20 18 c0 -3 -4 -8 -10 -11 -5
-3 -10 -1 -10 4 0 6 5 11 10 11 6 0 10 -2 10 -4z m-90 -17 c0 -13 -17 -19 -34
-13 -24 9 -19 20 9 20 14 0 25 -3 25 -7z m30 -23 c0 -8 -4 -18 -10 -21 -5 -3
-10 3 -10 14 0 12 5 21 10 21 6 0 10 -6 10 -14z m97 -17 c-21 -18 -21 -19 -2
-17 13 2 19 -2 17 -11 -2 -10 4 -12 25 -7 21 5 24 4 13 -4 -8 -5 -24 -10 -35
-10 -14 0 -21 -7 -21 -19 0 -15 3 -17 13 -9 10 8 13 5 13 -11 0 -18 -5 -22
-22 -19 -13 2 -22 9 -20 16 1 7 -5 15 -13 18 -8 4 -15 11 -15 17 0 7 4 7 12
-1 18 -18 32 -14 17 5 -10 11 -10 14 -1 9 13 -8 17 6 5 18 -11 10 -12 37 -2
30 5 -3 9 2 9 10 0 10 6 13 15 10 12 -5 10 -10 -8 -25z m-150 -5 c-3 -3 -12
-4 -19 -1 -8 3 -5 6 6 6 11 1 17 -2 13 -5z m78 -14 c5 -8 12 -7 23 2 13 9 12
7 -2 -9 -11 -13 -16 -29 -12 -39 5 -14 4 -15 -9 -4 -18 15 -20 -1 -2 -19 10
-10 9 -11 -5 -6 -21 8 -23 26 -5 44 10 11 10 13 0 7 -20 -11 -36 3 -22 20 14
17 25 18 34 4z m160 -39 c6 -11 -29 -34 -38 -25 -3 3 -3 12 0 20 6 16 29 19
38 5z m18 -45 c22 -17 10 -27 -18 -15 -13 5 -15 8 -5 8 13 1 13 2 0 11 -8 5
-10 10 -5 10 6 -1 18 -7 28 -14z m417 -486 c-24 -16 -31 -11 -19 11 8 16 14
18 22 10 9 -9 8 -14 -3 -21z m7 -24 c0 -8 -6 -12 -15 -9 -11 5 -11 7 0 14 7 5
13 9 14 9 0 0 1 -6 1 -14z m48 -6 c4 -6 -1 -7 -12 -4 -16 5 -16 4 -3 -8 18
-16 24 -38 10 -38 -5 0 -10 7 -10 15 0 8 -4 15 -10 15 -5 0 -10 7 -10 15 0 17
25 20 35 5z m52 -56 c-9 -9 -28 6 -21 18 4 6 10 6 17 -1 6 -6 8 -13 4 -17z
m-87 -9 c0 -8 -2 -15 -4 -15 -2 0 -6 7 -10 15 -3 8 -1 15 4 15 6 0 10 -7 10
-15z m30 1 c0 -3 -4 -8 -10 -11 -5 -3 -10 -1 -10 4 0 6 5 11 10 11 6 0 10 -2
10 -4z m205 -15 c3 -5 2 -12 -3 -15 -5 -3 -9 1 -9 9 0 17 3 19 12 6z m-62 -56
c-7 -21 -13 -19 -13 6 0 11 4 18 10 14 5 -3 7 -12 3 -20z m81 -51 c3 -8 2 -12
-4 -9 -6 3 -10 10 -10 16 0 14 7 11 14 -7z m145 -113 c-1 -13 -2 -12 -6 2 -2
9 -8 17 -12 17 -4 0 -8 7 -8 16 0 14 2 14 14 -2 7 -10 12 -25 12 -33z m-55
-52 c-3 -5 -10 -7 -15 -3 -5 3 -7 10 -3 15 3 5 10 7 15 3 5 -3 7 -10 3 -15z"/>
<path d="M2625 2210 c-19 -8 -19 -9 3 -9 12 -1 22 4 22 9 0 6 -1 10 -2 9 -2 0
-12 -4 -23 -9z"/>
<path d="M2713 2185 c0 -8 4 -12 9 -9 5 3 6 10 3 15 -9 13 -12 11 -12 -6z"/>
<path d="M2715 2150 c3 -5 8 -10 11 -10 2 0 4 5 4 10 0 6 -5 10 -11 10 -5 0
-7 -4 -4 -10z"/>
<path d="M922 1974 c-29 -7 -66 -21 -82 -29 -41 -21 -96 -78 -120 -124 -18
-36 -18 -40 -2 -46 9 -4 60 -22 112 -41 l95 -35 18 26 c65 89 232 68 285 -35
17 -33 21 -54 17 -80 -10 -50 -41 -106 -73 -128 -50 -36 -90 -37 -189 -3 -50
17 -93 31 -96 31 -6 0 -69 -171 -65 -175 2 -1 42 -17 90 -35 101 -38 154 -81
164 -136 15 -79 -21 -166 -82 -201 -120 -69 -302 41 -281 171 l5 31 -114 41
-114 41 -10 -36 c-29 -106 2 -219 85 -310 61 -65 136 -109 242 -141 102 -31
234 -26 314 11 114 53 181 157 187 290 5 88 -13 140 -68 202 -22 26 -28 38
-18 41 7 2 32 9 55 15 75 20 134 70 173 145 30 60 34 77 34 144 0 59 -5 89
-23 129 -47 105 -184 203 -332 238 -78 18 -138 18 -207 -1z"/>
<path d="M3555 1441 c-6 -11 9 -23 19 -14 9 9 7 23 -3 23 -6 0 -12 -4 -16 -9z"/>
<path d="M3715 1372 c-12 -12 -4 -20 15 -15 11 3 20 9 20 12 0 9 -27 10 -35 3z"/>
<path d="M3659 1313 c-13 -16 -12 -17 4 -4 9 7 17 15 17 17 0 8 -8 3 -21 -13z"/>
<path d="M2596 1249 c-88 -16 -163 -32 -167 -36 -7 -8 -29 -126 -25 -131 2 -1
48 3 104 10 56 6 103 10 106 7 2 -2 -22 -150 -54 -329 -32 -179 -57 -326 -55
-328 7 -7 161 -29 166 -24 4 4 39 194 78 422 40 228 74 421 76 428 6 18 -46
14 -229 -19z"/>
<path d="M3836 1242 c-3 -5 1 -9 9 -9 8 0 12 4 9 9 -3 4 -7 8 -9 8 -2 0 -6 -4
-9 -8z"/>
<path d="M3855 1201 c-3 -5 -1 -12 5 -16 5 -3 10 1 10 9 0 18 -6 21 -15 7z"/>
<path d="M3977 1185 c-8 -8 -17 -12 -20 -9 -3 3 -3 -5 1 -18 5 -18 7 -19 10
-5 2 9 7 17 12 17 4 0 10 7 14 15 7 19 1 19 -17 0z"/>
<path d="M3836 1152 c-3 -5 1 -9 9 -9 8 0 12 4 9 9 -3 4 -7 8 -9 8 -2 0 -6 -4
-9 -8z"/>
<path d="M3981 1153 c0 -5 4 -17 9 -28 8 -18 9 -17 9 8 1 15 -3 27 -9 27 -5 0
-10 -3 -9 -7z"/>
</g>
</svg>
